<?xml version="1.0" encoding="UTF-8" standalone="no"?>
<!DOCTYPE svg PUBLIC "-//W3C//DTD SVG 1.1//EN" "http://www.w3.org/Graphics/SVG/1.1/DTD/svg11.dtd">
<svg width="100%" height="100%" viewBox="0 0 487 470" version="1.1" xmlns="http://www.w3.org/2000/svg" xmlns:xlink="http://www.w3.org/1999/xlink" xml:space="preserve" xmlns:serif="http://www.serif.com/" style="fill-rule:evenodd;clip-rule:evenodd;stroke-linejoin:round;stroke-miterlimit:2;">
    <g transform="matrix(1,0,0,1,-49.2276,-65.1239)">
        <g id="Prancheta1" transform="matrix(0.75,0,0,1,0,0)">
            <rect x="0" y="0" width="800" height="600" style="fill:none;"/>
            <g>
                <g transform="matrix(1.33333,0,0,1,-5.33333,-49.8761)">
                    <path d="M474,200C474,153.087 435.913,115 389,115L219,115C172.087,115 134,153.087 134,200L134,370C134,416.913 172.087,455 219,455L389,455C435.913,455 474,416.913 474,370L474,200Z" style="fill:url(#_Linear1);"/>
                </g>
                <g transform="matrix(1.12117,0,0,1.12117,-48.4677,-84.4093)">
                    <g transform="matrix(5.76974e-16,-7.06703,9.4227,4.32731e-16,-2208.29,1283.25)">
                        <path d="M149.749,280.131L149.749,278.631L153.889,276.855L149.749,275.091L149.749,273.591L155.269,275.955L155.269,277.767L149.749,280.131Z" style="fill:white;fill-rule:nonzero;"/>
                    </g>
                    <g transform="matrix(9.4227,0,8.37151e-32,7.06703,-1070.19,-1684.9)">
                        <path d="M154.333,281.679L150.685,281.679L150.685,271.359L154.333,271.359L154.333,272.775L152.413,272.775L152.413,280.263L154.333,280.263L154.333,281.679Z" style="fill:white;fill-rule:nonzero;"/>
                    </g>
                    <g transform="matrix(9.4227,0,8.37151e-32,7.06703,-1070.19,-1684.9)">
                        <path d="M157.885,281.679L157.885,280.263L159.805,280.263L159.805,272.775L157.885,272.775L157.885,271.359L161.533,271.359L161.533,281.679L157.885,281.679Z" style="fill:white;fill-rule:nonzero;"/>
                    </g>
                    <g transform="matrix(18.8557,0,1.67522e-31,14.1418,-2556.82,-3631.99)">
                        <path d="M152.893,281.679C151.781,280.007 151.225,278.287 151.225,276.519C151.225,274.743 151.781,273.023 152.893,271.359L153.793,271.359C152.777,273.087 152.269,274.807 152.269,276.519C152.269,277.375 152.397,278.233 152.653,279.093C152.909,279.953 153.289,280.815 153.793,281.679L152.893,281.679Z" style="fill:white;fill-rule:nonzero;"/>
                    </g>
                    <g transform="matrix(18.8557,0,1.67522e-31,14.1418,-2530.27,-3631.99)">
                        <path d="M159.325,281.679L158.425,281.679C158.929,280.815 159.309,279.953 159.565,279.093C159.821,278.233 159.949,277.375 159.949,276.519C159.949,274.807 159.441,273.087 158.425,271.359L159.325,271.359C160.437,273.023 160.993,274.743 160.993,276.519C160.993,278.287 160.437,280.007 159.325,281.679Z" style="fill:white;fill-rule:nonzero;"/>
                    </g>
                    <g transform="matrix(18.8557,0,1.67522e-31,14.1418,-2476.04,-3593.99)">
                        <rect x="149.869" y="280.359" width="5.28" height="0.936" style="fill:white;fill-rule:nonzero;"/>
                    </g>
                    <g transform="matrix(18.8557,0,1.67522e-31,14.1418,-2476.04,-3612.73)">
                        <rect x="149.869" y="280.359" width="5.28" height="0.936" style="fill:white;fill-rule:nonzero;"/>
                    </g>
                    <g transform="matrix(18.8557,0,1.67522e-31,14.1418,-2476.04,-3632.65)">
                        <rect x="149.869" y="280.359" width="5.28" height="0.936" style="fill:white;fill-rule:nonzero;"/>
                    </g>
                    <g transform="matrix(18.8557,0,1.67522e-31,14.1418,-2476.04,-3652.56)">
                        <rect x="149.869" y="280.359" width="5.28" height="0.936" style="fill:white;fill-rule:nonzero;"/>
                    </g>
                </g>
                <g transform="matrix(11.8771,0,0,8.9078,-1747.68,-3618.31)">
                    <path d="M155.194,464.442C154.178,464.442 153.67,463.946 153.67,462.954L153.67,458.79L152.674,458.79L152.674,458.082L153.67,458.082L153.67,456.594L154.462,456.594L154.462,458.082L156.106,458.082L156.106,458.79L154.462,458.79L154.462,462.93C154.462,463.226 154.528,463.434 154.66,463.554C154.792,463.674 154.994,463.734 155.266,463.734L156.106,463.734L156.106,464.442L155.194,464.442Z" style="fill:rgb(128,128,128);fill-rule:nonzero;"/>
                    <path d="M159.79,464.586C159.182,464.586 158.666,464.444 158.242,464.16C157.818,463.876 157.492,463.484 157.264,462.984C157.036,462.484 156.922,461.91 156.922,461.262C156.922,460.614 157.034,460.04 157.258,459.54C157.482,459.04 157.804,458.648 158.224,458.364C158.644,458.08 159.15,457.938 159.742,457.938C160.31,457.938 160.8,458.074 161.212,458.346C161.624,458.618 161.942,459.002 162.166,459.498C162.39,459.994 162.502,460.574 162.502,461.238L162.502,461.49L157.75,461.49C157.782,462.242 157.978,462.82 158.338,463.224C158.698,463.628 159.182,463.83 159.79,463.83C160.254,463.83 160.634,463.718 160.93,463.494C161.226,463.27 161.43,462.974 161.542,462.606L162.394,462.666C162.234,463.226 161.926,463.686 161.47,464.046C161.014,464.406 160.454,464.586 159.79,464.586ZM157.75,460.782L161.638,460.782C161.598,460.102 161.41,459.584 161.074,459.228C160.738,458.872 160.294,458.694 159.742,458.694C159.19,458.694 158.738,458.876 158.386,459.24C158.034,459.604 157.822,460.118 157.75,460.782Z" style="fill:rgb(128,128,128);fill-rule:nonzero;"/>
                    <path d="M163.918,464.442L163.918,458.082L164.638,458.082L164.662,459.282C164.806,458.874 165.046,458.548 165.382,458.304C165.718,458.06 166.106,457.938 166.546,457.938C167.002,457.938 167.39,458.066 167.71,458.322C168.03,458.578 168.254,458.934 168.382,459.39C168.518,458.934 168.756,458.578 169.096,458.322C169.436,458.066 169.846,457.938 170.326,457.938C170.958,457.938 171.454,458.154 171.814,458.586C172.174,459.018 172.354,459.61 172.354,460.362L172.354,464.442L171.562,464.442L171.562,460.602C171.562,459.97 171.44,459.486 171.196,459.15C170.952,458.814 170.602,458.646 170.146,458.646C169.666,458.646 169.274,458.832 168.97,459.204C168.666,459.576 168.514,460.066 168.514,460.674L168.514,464.442L167.722,464.442L167.722,460.638C167.722,460.022 167.61,459.536 167.386,459.18C167.162,458.824 166.818,458.646 166.354,458.646C165.866,458.646 165.47,458.83 165.166,459.198C164.862,459.566 164.71,460.046 164.71,460.638L164.71,464.442L163.918,464.442Z" style="fill:rgb(128,128,128);fill-rule:nonzero;"/>
                    <path d="M174.082,466.242L174.082,458.082L174.802,458.082L174.826,459.27C175.01,458.838 175.284,458.508 175.648,458.28C176.012,458.052 176.426,457.938 176.89,457.938C177.49,457.938 177.99,458.086 178.39,458.382C178.79,458.678 179.09,459.078 179.29,459.582C179.49,460.086 179.59,460.646 179.59,461.262C179.59,461.878 179.49,462.438 179.29,462.942C179.09,463.446 178.79,463.846 178.39,464.142C177.99,464.438 177.49,464.586 176.89,464.586C176.442,464.586 176.034,464.47 175.666,464.238C175.298,464.006 175.034,463.714 174.874,463.362L174.874,466.242L174.082,466.242ZM176.83,463.83C177.422,463.83 177.89,463.602 178.234,463.146C178.578,462.69 178.75,462.062 178.75,461.262C178.75,460.462 178.578,459.834 178.234,459.378C177.89,458.922 177.418,458.694 176.818,458.694C176.234,458.694 175.764,458.922 175.408,459.378C175.052,459.834 174.874,460.462 174.874,461.262C174.874,462.062 175.052,462.69 175.408,463.146C175.764,463.602 176.238,463.83 176.83,463.83Z" style="fill:rgb(128,128,128);fill-rule:nonzero;"/>
                    <path d="M182.254,464.442C181.894,464.442 181.61,464.352 181.402,464.172C181.194,463.992 181.09,463.71 181.09,463.326L181.09,455.922L181.882,455.922L181.882,463.266C181.882,463.578 182.042,463.734 182.362,463.734L182.866,463.734L182.866,464.442L182.254,464.442Z" style="fill:rgb(128,128,128);fill-rule:nonzero;"/>
                    <path d="M186.55,464.586C185.942,464.586 185.426,464.444 185.002,464.16C184.578,463.876 184.252,463.484 184.024,462.984C183.796,462.484 183.682,461.91 183.682,461.262C183.682,460.614 183.794,460.04 184.018,459.54C184.242,459.04 184.564,458.648 184.984,458.364C185.404,458.08 185.91,457.938 186.502,457.938C187.07,457.938 187.56,458.074 187.972,458.346C188.384,458.618 188.702,459.002 188.926,459.498C189.15,459.994 189.262,460.574 189.262,461.238L189.262,461.49L184.51,461.49C184.542,462.242 184.738,462.82 185.098,463.224C185.458,463.628 185.942,463.83 186.55,463.83C187.014,463.83 187.394,463.718 187.69,463.494C187.986,463.27 188.19,462.974 188.302,462.606L189.154,462.666C188.994,463.226 188.686,463.686 188.23,464.046C187.774,464.406 187.214,464.586 186.55,464.586ZM184.51,460.782L188.398,460.782C188.358,460.102 188.17,459.584 187.834,459.228C187.498,458.872 187.054,458.694 186.502,458.694C185.95,458.694 185.498,458.876 185.146,459.24C184.794,459.604 184.582,460.118 184.51,460.782Z" style="fill:rgb(128,128,128);fill-rule:nonzero;"/>
                    <path d="M190.606,464.442L190.606,458.01L192.226,458.01L192.262,459.054C192.422,458.678 192.656,458.386 192.964,458.178C193.272,457.97 193.622,457.866 194.014,457.866C194.478,457.866 194.866,457.984 195.178,458.22C195.49,458.456 195.714,458.774 195.85,459.174C196.002,458.75 196.236,458.426 196.552,458.202C196.868,457.978 197.238,457.866 197.662,457.866C198.318,457.866 198.842,458.074 199.234,458.49C199.626,458.906 199.822,459.51 199.822,460.302L199.822,464.442L198.022,464.442L198.022,460.806C198.022,459.798 197.698,459.294 197.05,459.294C196.722,459.294 196.468,459.428 196.288,459.696C196.108,459.964 196.018,460.342 196.018,460.83L196.018,464.442L194.398,464.442L194.398,460.83C194.398,460.334 194.326,459.954 194.182,459.69C194.038,459.426 193.79,459.294 193.438,459.294C193.11,459.294 192.856,459.43 192.676,459.702C192.496,459.974 192.406,460.35 192.406,460.83L192.406,464.442L190.606,464.442Z" style="fill:rgb(254,95,99);fill-rule:nonzero;"/>
                    <path d="M204.142,464.586C203.486,464.586 202.916,464.446 202.432,464.166C201.948,463.886 201.572,463.496 201.304,462.996C201.036,462.496 200.902,461.906 200.902,461.226C200.902,460.554 201.034,459.966 201.298,459.462C201.562,458.958 201.936,458.566 202.42,458.286C202.904,458.006 203.474,457.866 204.13,457.866C204.77,457.866 205.326,458.006 205.798,458.286C206.27,458.566 206.636,458.966 206.896,459.486C207.156,460.006 207.286,460.626 207.286,461.346L207.286,461.706L202.762,461.706C202.786,462.218 202.924,462.598 203.176,462.846C203.428,463.094 203.762,463.218 204.178,463.218C204.802,463.218 205.202,462.958 205.378,462.438L207.19,462.546C207.014,463.186 206.656,463.686 206.116,464.046C205.576,464.406 204.918,464.586 204.142,464.586ZM202.762,460.602L205.438,460.602C205.414,460.13 205.284,459.778 205.048,459.546C204.812,459.314 204.506,459.198 204.13,459.198C203.754,459.198 203.444,459.32 203.2,459.564C202.956,459.808 202.81,460.154 202.762,460.602Z" style="fill:rgb(254,95,99);fill-rule:nonzero;"/>
                </g>
            </g>
        </g>
    </g>
    <defs>
        <linearGradient id="_Linear1" x1="0" y1="0" x2="1" y2="0" gradientUnits="userSpaceOnUse" gradientTransform="matrix(292,308,-308,292,160,134)"><stop offset="0" style="stop-color:rgb(255,134,104);stop-opacity:1"/><stop offset="1" style="stop-color:rgb(254,95,99);stop-opacity:1"/></linearGradient>
    </defs>
</svg>
